<?xml version="1.0" encoding="utf-8"?>
<!-- Generator: Adobe Illustrator 17.0.0, SVG Export Plug-In . SVG Version: 6.00 Build 0)  -->
<!DOCTYPE svg PUBLIC "-//W3C//DTD SVG 1.1//EN" "http://www.w3.org/Graphics/SVG/1.1/DTD/svg11.dtd">
<svg version="1.1" id="Ebene_1" xmlns="http://www.w3.org/2000/svg" xmlns:xlink="http://www.w3.org/1999/xlink" x="0px" y="0px"
	 width="141.73px" height="141.73px" viewBox="0 0 141.73 141.73" enable-background="new 0 0 141.73 141.73" xml:space="preserve">
<g>
	<path d="M-55.233,64.664l-2.865,8.789l-2.748-8.789h-3.547l-2.884,8.711l-2.748-8.711H-74l4.424,13.642h4.132l2.728-8.302
		l2.611,8.302h4.132l4.424-13.642H-55.233L-55.233,64.664z M-41.556,75.324v-2.495h6.061v-2.884h-6.061v-2.3h6.879v-2.982h-10.699
		v13.642h10.952v-2.982H-41.556L-41.556,75.324z M-26.74,78.305h10.368v-3.06h-6.509V64.664h-3.859V78.305L-26.74,78.305z
		 M-7.463,78.305h3.859V67.723h4.17v-3.06h-12.219v3.06h4.19V78.305L-7.463,78.305z M11.809,75.324v-2.495h6.061v-2.884h-6.061v-2.3
		h6.879v-2.982H7.989v13.642h10.953v-2.982H11.809L11.809,75.324z M36.506,64.664v7.269l-6.021-7.269h-3.177v13.642h3.781v-7.269
		l6.022,7.269h3.176V64.664H36.506L36.506,64.664z"/>
	<path d="M69.968,77.36c3.024,0.81,6.132-0.984,6.943-4.009c0.81-3.024-0.985-6.133-4.009-6.943
		c-3.024-0.81-6.133,0.984-6.943,4.009C65.149,73.441,66.944,76.549,69.968,77.36L69.968,77.36z"/>
	<path d="M84.08,45.948c0,0-6.576-3.581-13.664,1.536c-6.095,4.4-13.558,12.144-15.163,13.997c-0.341,0.353-1.75,2.214-0.055,3.001
		c1.284,0.364,2.287,0.178,5.149-1.861c2.755-1.896,8.017-7.083,11.022-7.942c1.789-0.394,4.652-0.275,6.344,2.425
		c1.759,2.711,4.414,5.941,5.101,6.775c1.35,1.71,4.474,2.339,5.631,0.799c0.113-0.147,0.082-0.291-0.039-0.549
		c-1.01-1.44-2.112-3.166-2.112-3.166S82.286,55.797,84.08,45.948L84.08,45.948z"/>
	<path d="M64.139,50.414l-8.569,3.883c0,0-1.589,0.884-1.08,1.897c0.64,1.024,1.98,0.342,1.98,0.342l0.46-0.3l7.516-5.492
		C64.446,50.744,64.59,50.325,64.139,50.414L64.139,50.414z"/>
	<path d="M84.392,97.65c0,0-6.513,3.695-13.689-1.297c-6.171-4.293-13.768-11.906-15.405-13.73c-0.347-0.347-1.788-2.183-0.108-3
		c1.278-0.386,2.284-0.218,5.181,1.771c2.788,1.848,8.14,6.942,11.159,7.748c1.796,0.362,4.657,0.194,6.301-2.536
		c1.711-2.742,4.31-6.017,4.982-6.862c1.32-1.734,4.433-2.417,5.616-0.898c0.116,0.145,0.087,0.29-0.029,0.55
		c-0.985,1.458-2.057,3.202-2.057,3.202S82.426,87.834,84.392,97.65L84.392,97.65z"/>
	<path d="M64.375,93.533L55.74,89.8c0,0-1.604-0.856-1.113-1.878c0.623-1.035,1.974-0.376,1.974-0.376l0.466,0.292l7.61,5.36
		C64.677,93.198,64.828,93.614,64.375,93.533L64.375,93.533z"/>
	<path d="M105.992,78.524c1.163,0,2.143-0.173,2.94-0.519c0.797-0.346,1.392-0.816,1.784-1.411c0.392-0.594,0.588-1.251,0.588-1.97
		c0-0.862-0.225-1.548-0.676-2.058c-0.451-0.51-0.99-0.888-1.617-1.137c-0.627-0.248-1.457-0.496-2.489-0.745
		c-0.798-0.183-1.428-0.356-1.892-0.519c-0.464-0.163-0.852-0.392-1.166-0.686c-0.314-0.294-0.47-0.676-0.47-1.147
		c0-0.64,0.277-1.163,0.833-1.568c0.555-0.405,1.388-0.608,2.499-0.608c0.627,0,1.267,0.095,1.92,0.284
		c0.654,0.19,1.268,0.467,1.843,0.833l0.647-1.568c-0.562-0.392-1.235-0.692-2.019-0.902c-0.784-0.209-1.581-0.314-2.391-0.314
		c-1.164,0-2.137,0.176-2.921,0.529c-0.784,0.353-1.369,0.823-1.754,1.411c-0.386,0.588-0.578,1.248-0.578,1.98
		c0,0.876,0.225,1.571,0.676,2.087c0.451,0.516,0.993,0.899,1.627,1.147c0.633,0.248,1.466,0.497,2.499,0.745
		c0.823,0.196,1.46,0.372,1.911,0.529c0.451,0.157,0.829,0.382,1.137,0.676c0.306,0.294,0.46,0.676,0.46,1.147
		c0,0.64-0.281,1.153-0.843,1.539c-0.562,0.386-1.411,0.578-2.548,0.578c-0.862,0-1.702-0.147-2.518-0.441
		c-0.817-0.294-1.487-0.676-2.009-1.147l-0.725,1.529c0.548,0.51,1.303,0.925,2.263,1.245
		C103.964,78.364,104.96,78.524,105.992,78.524L105.992,78.524L105.992,78.524z M121.28,78.524c1.071,0,2.055-0.183,2.95-0.549
		c0.895-0.366,1.656-0.902,2.283-1.607l-1.274-1.235c-1.045,1.098-2.332,1.646-3.861,1.646c-1.019,0-1.94-0.228-2.763-0.686
		c-0.824-0.457-1.467-1.088-1.931-1.891c-0.464-0.804-0.696-1.702-0.696-2.695c0-0.993,0.232-1.891,0.696-2.695
		c0.464-0.804,1.107-1.434,1.931-1.891c0.823-0.457,1.744-0.686,2.763-0.686c1.542,0,2.829,0.542,3.861,1.627l1.274-1.235
		c-0.627-0.706-1.385-1.238-2.273-1.597c-0.889-0.359-1.869-0.539-2.94-0.539c-1.372,0-2.614,0.304-3.724,0.911
		c-1.111,0.608-1.98,1.444-2.607,2.509c-0.627,1.065-0.941,2.264-0.941,3.597s0.314,2.532,0.941,3.597
		c0.627,1.065,1.493,1.901,2.597,2.509S119.908,78.524,121.28,78.524L121.28,78.524L121.28,78.524z M140.135,64.647v5.9h-7.879v-5.9
		h-1.96v13.72h1.96v-6.115h7.879v6.115h1.96v-13.72H140.135L140.135,64.647z M157.442,78.367h2.058l-6.233-13.72h-1.94l-6.213,13.72
		h2.018l1.51-3.43h7.291L157.442,78.367L157.442,78.367z M149.328,73.369l2.959-6.723l2.96,6.723H149.328L149.328,73.369z
		 M172.201,66.352v-1.705h-9.683v13.72h1.96V72.82h6.88v-1.686h-6.88v-4.782H172.201L172.201,66.352z M185.627,66.352v-1.705h-9.683
		v13.72h1.96V72.82h6.88v-1.686h-6.88v-4.782H185.627L185.627,66.352z M191.33,76.662v-4.43h6.88v-1.666h-6.88v-4.214h7.722v-1.705
		h-9.682v13.72h9.957v-1.705H191.33L191.33,76.662z M213.321,64.647v10.231l-8.232-10.231h-1.607v13.72h1.96V68.136l8.232,10.231
		h1.607v-13.72H213.321L213.321,64.647z"/>
</g>
</svg>
