<?xml version="1.0" encoding="utf-8"?>
<!-- Generator: Adobe Illustrator 16.0.4, SVG Export Plug-In . SVG Version: 6.00 Build 0)  -->
<!DOCTYPE svg PUBLIC "-//W3C//DTD SVG 1.1//EN" "http://www.w3.org/Graphics/SVG/1.1/DTD/svg11.dtd">
<svg version="1.1" id="Ebene_1" xmlns="http://www.w3.org/2000/svg" xmlns:xlink="http://www.w3.org/1999/xlink" x="0px" y="0px"
	 width="141.73px" height="141.73px" viewBox="0 0 141.73 141.73" enable-background="new 0 0 141.73 141.73" xml:space="preserve">
<g>
	<path d="M55.807,57.366l-2.427,7.445l-2.328-7.445h-3.004l-2.443,7.378l-2.328-7.378h-3.368l3.747,11.556h3.5l2.311-7.033
		l2.212,7.033h3.5l3.747-11.556H55.807L55.807,57.366z M67.391,66.396v-2.113h5.134v-2.443h-5.134v-1.948h5.827v-2.526h-9.062
		v11.556h9.276v-2.526H67.391L67.391,66.396z M79.941,68.922h8.782v-2.592h-5.515v-8.963h-3.268V68.922L79.941,68.922z
		 M96.271,68.922h3.268v-8.964h3.532v-2.592h-10.35v2.592h3.55V68.922L96.271,68.922z M112.595,66.396v-2.113h5.134v-2.443h-5.134
		v-1.948h5.827v-2.526h-9.062v11.556h9.277v-2.526H112.595L112.595,66.396z M133.516,57.366v6.158l-5.102-6.158h-2.69v11.556h3.202
		v-6.158l5.101,6.158h2.691V57.366H133.516L133.516,57.366z"/>
	<path d="M44.359,86.331c0.985,0,1.815-0.146,2.49-0.44c0.675-0.293,1.18-0.69,1.511-1.194c0.333-0.504,0.498-1.06,0.498-1.67
		c0-0.729-0.19-1.311-0.572-1.742c-0.382-0.433-0.839-0.752-1.37-0.963c-0.531-0.21-1.234-0.421-2.108-0.632
		c-0.675-0.155-1.209-0.302-1.602-0.439c-0.393-0.139-0.722-0.332-0.988-0.581c-0.265-0.249-0.398-0.572-0.398-0.972
		c0-0.542,0.235-0.985,0.706-1.328c0.47-0.343,1.176-0.516,2.117-0.516c0.531,0,1.073,0.081,1.627,0.241
		c0.553,0.161,1.073,0.396,1.56,0.706l0.548-1.329c-0.476-0.332-1.046-0.586-1.71-0.764c-0.664-0.177-1.339-0.266-2.025-0.266
		c-0.985,0-1.809,0.148-2.474,0.448c-0.664,0.298-1.16,0.697-1.485,1.195c-0.328,0.498-0.49,1.057-0.49,1.677
		c0,0.741,0.19,1.331,0.572,1.768c0.382,0.438,0.841,0.761,1.378,0.972c0.537,0.21,1.243,0.421,2.117,0.631
		c0.697,0.166,1.236,0.315,1.619,0.448s0.703,0.324,0.963,0.573s0.391,0.572,0.391,0.971c0,0.542-0.238,0.978-0.714,1.304
		c-0.477,0.327-1.195,0.49-2.158,0.49c-0.73,0-1.442-0.125-2.134-0.374c-0.691-0.249-1.259-0.572-1.702-0.972l-0.614,1.296
		c0.465,0.432,1.104,0.783,1.917,1.054C42.641,86.195,43.485,86.331,44.359,86.331L44.359,86.331L44.359,86.331z M57.309,86.331
		c0.907,0,1.741-0.155,2.499-0.465c0.758-0.311,1.404-0.765,1.935-1.362l-1.079-1.045c-0.886,0.93-1.976,1.394-3.271,1.394
		c-0.863,0-1.644-0.193-2.341-0.581c-0.697-0.387-1.243-0.922-1.636-1.603s-0.589-1.441-0.589-2.282s0.196-1.602,0.589-2.283
		c0.393-0.681,0.938-1.215,1.636-1.602c0.696-0.387,1.478-0.581,2.341-0.581c1.307,0,2.396,0.459,3.271,1.378l1.079-1.046
		c-0.531-0.599-1.173-1.048-1.926-1.353c-0.753-0.305-1.583-0.457-2.491-0.457c-1.162,0-2.214,0.258-3.154,0.772
		c-0.941,0.515-1.678,1.223-2.209,2.125s-0.796,1.918-0.796,3.047c0,1.13,0.265,2.145,0.796,3.047
		c0.531,0.901,1.265,1.61,2.201,2.125C55.098,86.073,56.147,86.331,57.309,86.331L57.309,86.331L57.309,86.331z M73.28,74.576v4.998
		h-6.675v-4.998h-1.66v11.621h1.66v-5.18h6.675v5.18h1.66V74.576H73.28L73.28,74.576z M87.94,86.197h1.743l-5.279-11.621H82.76
		l-5.263,11.621h1.71l1.278-2.905h6.176L87.94,86.197L87.94,86.197z M81.066,81.964l2.508-5.694l2.507,5.694H81.066L81.066,81.964z
		 M100.442,76.02v-1.444H92.24v11.621h1.66v-4.698h5.827v-1.428H93.9V76.02H100.442L100.442,76.02z M111.814,76.02v-1.444h-8.201
		v11.621h1.66v-4.698h5.827v-1.428h-5.827V76.02H111.814L111.814,76.02z M116.645,84.753v-3.752h5.828V79.59h-5.828V76.02h6.542
		v-1.444h-8.202v11.621h8.435v-1.444H116.645L116.645,84.753z M135.274,74.576v8.666l-6.974-8.666h-1.362v11.621h1.661v-8.666
		l6.973,8.666h1.362V74.576H135.274L135.274,74.576z"/>
	<path d="M17.204,76.517c2.562,0.686,5.196-0.834,5.881-3.396c0.686-2.562-0.833-5.195-3.396-5.882
		c-2.562-0.686-5.195,0.834-5.881,3.396C13.122,73.198,14.643,75.83,17.204,76.517L17.204,76.517z"/>
	<path d="M29.159,49.909c0,0-5.57-3.033-11.575,1.301C12.422,54.938,6.1,61.497,4.74,63.067c-0.289,0.298-1.482,1.875-0.046,2.542
		c1.088,0.309,1.937,0.15,4.361-1.577c2.334-1.605,6.792-6,9.337-6.727c1.516-0.334,3.941-0.233,5.374,2.054
		c1.49,2.296,3.739,5.032,4.321,5.738c1.144,1.448,3.79,1.982,4.77,0.678c0.096-0.125,0.069-0.247-0.033-0.466
		c-0.856-1.219-1.79-2.682-1.79-2.682S27.639,58.251,29.159,49.909L29.159,49.909z"/>
	<path d="M12.266,53.692l-7.258,3.289c0,0-1.346,0.75-0.915,1.607c0.542,0.868,1.677,0.29,1.677,0.29l0.39-0.254l6.367-4.652
		C12.528,53.971,12.648,53.616,12.266,53.692L12.266,53.692z"/>
	<path d="M29.424,93.704c0,0-5.518,3.131-11.596-1.099C12.6,88.969,6.166,82.52,4.778,80.974c-0.293-0.294-1.515-1.849-0.091-2.541
		c1.082-0.327,1.934-0.185,4.389,1.5c2.361,1.565,6.894,5.88,9.452,6.563c1.521,0.306,3.944,0.164,5.336-2.148
		c1.449-2.323,3.651-5.098,4.221-5.812c1.118-1.469,3.754-2.048,4.757-0.761c0.098,0.123,0.074,0.246-0.024,0.466
		c-0.835,1.235-1.743,2.713-1.743,2.713S27.758,85.389,29.424,93.704L29.424,93.704z"/>
	<path d="M12.468,90.217l-7.314-3.162c0,0-1.359-0.725-0.943-1.591c0.528-0.876,1.672-0.318,1.672-0.318l0.394,0.247l6.446,4.541
		C12.723,89.933,12.85,90.285,12.468,90.217L12.468,90.217z"/>
</g>
</svg>
